<svg width="328" height="67" viewBox="0 0 328 67" fill="none" xmlns="http://www.w3.org/2000/svg">
<path d="M0 24C0 10.7452 10.7452 0 24 0H304C317.255 0 328 10.7452 328 24V43C328 56.2548 317.255 67 304 67H24C10.7452 67 0 56.2548 0 43V24Z" fill="#0A3871"/>
<path d="M128.968 31C128.536 28.6136 126.627 27.2045 124.286 27.2045C121.309 27.2045 119.15 29.5 119.15 33.1818C119.15 36.8636 121.309 39.1591 124.286 39.1591C126.627 39.1591 128.536 37.75 128.968 35.3636H127.559C127.218 36.9773 125.832 37.8409 124.286 37.8409C122.173 37.8409 120.513 36.2045 120.513 33.1818C120.513 30.1591 122.173 28.5227 124.286 28.5227C125.832 28.5227 127.218 29.3864 127.559 31H128.968ZM131.063 39H132.404V33.4773C132.404 32.2955 133.336 31.4318 134.609 31.4318C134.967 31.4318 135.336 31.5 135.427 31.5227V30.1591C135.273 30.1477 134.921 30.1364 134.722 30.1364C133.677 30.1364 132.768 30.7273 132.45 31.5909H132.359V30.2727H131.063V39ZM137.016 39H138.357V30.2727H137.016V39ZM137.698 28.8182C138.221 28.8182 138.653 28.4091 138.653 27.9091C138.653 27.4091 138.221 27 137.698 27C137.175 27 136.744 27.4091 136.744 27.9091C136.744 28.4091 137.175 28.8182 137.698 28.8182ZM140.813 42.2727H142.154V37.6591H142.268C142.563 38.1364 143.131 39.1818 144.813 39.1818C146.995 39.1818 148.518 37.4318 148.518 34.6591C148.518 31.9091 146.995 30.1591 144.79 30.1591C143.086 30.1591 142.563 31.2045 142.268 31.6591H142.109V30.2727H140.813V42.2727ZM142.131 34.6364C142.131 32.6818 142.995 31.3636 144.631 31.3636C146.336 31.3636 147.177 32.7955 147.177 34.6364C147.177 36.5 146.313 37.9773 144.631 37.9773C143.018 37.9773 142.131 36.6136 142.131 34.6364ZM154.359 30.2727H152.495V28.1818H151.154V30.2727H149.836V31.4091H151.154V36.8636C151.154 38.3864 152.381 39.1136 153.518 39.1136C154.018 39.1136 154.336 39.0227 154.518 38.9545L154.245 37.75C154.131 37.7727 153.95 37.8182 153.654 37.8182C153.063 37.8182 152.495 37.6364 152.495 36.5V31.4091H154.359V30.2727ZM159.827 39.1818C162.191 39.1818 163.782 37.3864 163.782 34.6818C163.782 31.9545 162.191 30.1591 159.827 30.1591C157.464 30.1591 155.873 31.9545 155.873 34.6818C155.873 37.3864 157.464 39.1818 159.827 39.1818ZM159.827 37.9773C158.032 37.9773 157.214 36.4318 157.214 34.6818C157.214 32.9318 158.032 31.3636 159.827 31.3636C161.623 31.3636 162.441 32.9318 162.441 34.6818C162.441 36.4318 161.623 37.9773 159.827 37.9773ZM169.352 42.4545C171.442 42.4545 173.124 41.5 173.124 39.25V30.2727H171.829V31.6591H171.692C171.397 31.2045 170.852 30.1591 169.147 30.1591C166.942 30.1591 165.42 31.9091 165.42 34.5909C165.42 37.3182 167.011 38.8636 169.124 38.8636C170.829 38.8636 171.374 37.8636 171.67 37.3864H171.783V39.1591C171.783 40.6136 170.761 41.2727 169.352 41.2727C167.766 41.2727 167.21 40.4375 166.852 39.9545L165.783 40.7045C166.329 41.6193 167.403 42.4545 169.352 42.4545ZM169.306 37.6591C167.624 37.6591 166.761 36.3864 166.761 34.5682C166.761 32.7955 167.602 31.3636 169.306 31.3636C170.942 31.3636 171.806 32.6818 171.806 34.5682C171.806 36.5 170.92 37.6591 169.306 37.6591ZM175.579 39H176.92V33.4773C176.92 32.2955 177.852 31.4318 179.124 31.4318C179.482 31.4318 179.852 31.5 179.942 31.5227V30.1591C179.789 30.1477 179.437 30.1364 179.238 30.1364C178.192 30.1364 177.283 30.7273 176.965 31.5909H176.874V30.2727H175.579V39ZM184.1 39.2045C185.623 39.2045 186.418 38.3864 186.691 37.8182H186.759V39H188.1V33.25C188.1 30.4773 185.987 30.1591 184.873 30.1591C183.555 30.1591 182.055 30.6136 181.373 32.2045L182.646 32.6591C182.941 32.0227 183.64 31.3409 184.918 31.3409C186.151 31.3409 186.759 31.9943 186.759 33.1136V33.1591C186.759 33.8068 186.1 33.75 184.509 33.9545C182.89 34.1648 181.123 34.5227 181.123 36.5227C181.123 38.2273 182.441 39.2045 184.1 39.2045ZM184.305 38C183.237 38 182.464 37.5227 182.464 36.5909C182.464 35.5682 183.396 35.25 184.441 35.1136C185.009 35.0455 186.532 34.8864 186.759 34.6136V35.8409C186.759 36.9318 185.896 38 184.305 38ZM194.434 30.2727H192.479V29.3864C192.479 28.5227 192.843 28.0682 193.729 28.0682C194.116 28.0682 194.343 28.1591 194.479 28.2045L194.866 27.0455C194.661 26.9545 194.252 26.8182 193.593 26.8182C192.343 26.8182 191.138 27.5682 191.138 29.0682V30.2727H189.729V31.4091H191.138V39H192.479V31.4091H194.434V30.2727ZM198.631 39.2045C200.154 39.2045 200.95 38.3864 201.222 37.8182H201.29V39H202.631V33.25C202.631 30.4773 200.518 30.1591 199.404 30.1591C198.086 30.1591 196.586 30.6136 195.904 32.2045L197.177 32.6591C197.472 32.0227 198.171 31.3409 199.45 31.3409C200.683 31.3409 201.29 31.9943 201.29 33.1136V33.1591C201.29 33.8068 200.631 33.75 199.04 33.9545C197.421 34.1648 195.654 34.5227 195.654 36.5227C195.654 38.2273 196.972 39.2045 198.631 39.2045ZM198.836 38C197.768 38 196.995 37.5227 196.995 36.5909C196.995 35.5682 197.927 35.25 198.972 35.1136C199.54 35.0455 201.063 34.8864 201.29 34.6136V35.8409C201.29 36.9318 200.427 38 198.836 38ZM205.079 39H206.42V33.4773C206.42 32.2955 207.352 31.4318 208.624 31.4318C208.982 31.4318 209.352 31.5 209.442 31.5227V30.1591C209.289 30.1477 208.937 30.1364 208.738 30.1364C207.692 30.1364 206.783 30.7273 206.465 31.5909H206.374V30.2727H205.079V39Z" fill="white"/>
</svg>
